<svg xmlns="http://www.w3.org/2000/svg" xmlns:xlink="http://www.w3.org/1999/xlink" width="21" height="25" viewBox="0 0 21 25">
  <defs>
    <clipPath id="clip-path">
      <rect id="Rectangle_1778" data-name="Rectangle 1778" width="21" height="25" transform="translate(-0.015)" fill="#c60000"/>
    </clipPath>
  </defs>
  <g id="dlet" transform="translate(0.015)">
    <g id="Group_694" data-name="Group 694" transform="translate(0 0)">
      <g id="Group_693" data-name="Group 693" transform="translate(0)" clip-path="url(#clip-path)">
        <path id="Path_2801" data-name="Path 2801" d="M769.272,289.291l-.523-1.567a1.457,1.457,0,0,0-1.384-1h-4.393V285.3a1.3,1.3,0,0,0-1.3-1.3h-4.022a1.3,1.3,0,0,0-1.3,1.3v1.43h-4.392a1.458,1.458,0,0,0-1.384,1l-.523,1.567a1.173,1.173,0,0,0,1.112,1.544h.546l1.2,14.868a2.151,2.151,0,0,0,2.132,1.968h9.471a2.151,2.151,0,0,0,2.132-1.968l1.2-14.868h.3a1.173,1.173,0,0,0,1.113-1.544Zm-11.526-3.9h3.84v1.34h-3.84Zm7.527,20.2a.756.756,0,0,1-.749.693h-9.471a.756.756,0,0,1-.749-.693l-1.194-14.756h13.356Zm-13.8-16.143.428-1.285a.072.072,0,0,1,.069-.049h15.4a.072.072,0,0,1,.069.049l.429,1.285Zm0,0" transform="translate(-749.442 -283.686)" fill="#c60000"/>
      </g>
    </g>
    <path id="Path_2802" data-name="Path 2802" d="M1018.953,463.463h.037a.693.693,0,0,0,.692-.657l.651-12.5a.694.694,0,1,0-1.385-.072l-.651,12.5a.694.694,0,0,0,.656.729Zm0,0" transform="translate(-1005.334 -441.607)" fill="#c60000"/>
    <path id="Path_2803" data-name="Path 2803" d="M856.477,462.811a.693.693,0,0,0,.692.656h.038a.693.693,0,0,0,.655-.73l-.682-12.5a.693.693,0,0,0-1.385.076Zm0,0" transform="translate(-850.345 -441.61)" fill="#c60000"/>
    <path id="Path_2804" data-name="Path 2804" d="M944.948,463.466a.693.693,0,0,0,.694-.694v-12.5a.693.693,0,1,0-1.387,0v12.5a.693.693,0,0,0,.693.694Zm0,0" transform="translate(-934.715 -441.609)" fill="#c60000"/>
  </g>
</svg>
