<svg id="edit" xmlns="http://www.w3.org/2000/svg" width="22.986" height="22.871" viewBox="0 0 22.986 22.871">
  <path id="Path_2807" data-name="Path 2807" d="M780.215,391.5a.572.572,0,0,0-.572.573v5.083a1.719,1.719,0,0,1-1.717,1.717H761.862a1.719,1.719,0,0,1-1.717-1.717V382.242a1.719,1.719,0,0,1,1.717-1.717h5.083a.573.573,0,0,0,0-1.145h-5.083A2.866,2.866,0,0,0,759,382.242V397.16a2.865,2.865,0,0,0,2.862,2.862h16.063a2.865,2.865,0,0,0,2.862-2.862v-5.083a.572.572,0,0,0-.573-.573Zm0,0" transform="translate(-759 -377.152)" fill="#008d58"/>
  <path id="Path_2808" data-name="Path 2808" d="M882.416,341.275a2.576,2.576,0,0,0-3.643,0L868.56,351.489a.575.575,0,0,0-.147.252l-1.343,4.849a.572.572,0,0,0,.7.7l4.849-1.343a.572.572,0,0,0,.252-.147l10.213-10.213a2.579,2.579,0,0,0,0-3.643Zm-12.609,10.585,8.359-8.359,2.7,2.7-8.359,8.359Zm-.539,1.081,2.154,2.154-2.979.825Zm13.01-8.16-.607.607-2.7-2.7.608-.607a1.431,1.431,0,0,1,2.024,0l.672.672a1.433,1.433,0,0,1,0,2.024Zm0,0" transform="translate(-860.855 -340.521)" fill="#008d58"/>
</svg>
