<svg xmlns="http://www.w3.org/2000/svg" width="30.008" height="29.673" viewBox="0 0 30.008 29.673">
  <path id="setting" d="M935.252,52.972h-3.081c-.463,0-.625,0-2.2-3.947l-1.22-.5c-3.324,1.521-3.717,1.521-3.849,1.521h-.254l-.217-.188L922.244,47.7c-.332-.334-.447-.451,1.261-4.347l-.5-1.188C919,40.718,919,40.55,919,40.072V37.025c0-.477,0-.628,4-2.188l.5-1.19c-1.807-3.837-1.683-3.956-1.327-4.295l2.349-2.323.291-.01a20.356,20.356,0,0,1,3.913,1.44l1.217-.5C931.4,24,931.579,24,932.041,24h3.081c.462,0,.624,0,2.2,3.95l1.221.5c3.319-1.519,3.718-1.519,3.851-1.519h.252l.217.185,2.184,2.152c.332.339.446.455-1.263,4.352l.5,1.194C948.3,36.252,948.3,36.42,948.3,36.9v3.043c0,.466,0,.63-4,2.191l-.493,1.191c1.8,3.821,1.679,3.941,1.343,4.282l-2.366,2.337-.294.009a20.361,20.361,0,0,1-3.905-1.442l-1.223.5C935.891,52.972,935.724,52.972,935.252,52.972Zm-2.76-1.258h2.43c.279-.573.882-2.094,1.364-3.4l.1-.261,2.213-.9.238.1c1.319.568,2.877,1.2,3.484,1.389l1.708-1.685c-.217-.606-.874-2.091-1.468-3.342l-.12-.255.915-2.2.249-.1c1.332-.517,2.875-1.156,3.452-1.447V37.243c-.584-.277-2.12-.867-3.445-1.341l-.259-.093-.922-2.206.11-.249c.567-1.291,1.2-2.813,1.4-3.427l-1.712-1.689c-.553.195-2.1.864-3.4,1.464l-.243.113-2.212-.9-.1-.248c-.523-1.317-1.173-2.844-1.466-3.409h-2.428c-.28.572-.881,2.093-1.363,3.4l-.1.259-2.206.9-.238-.1c-1.322-.566-2.883-1.194-3.493-1.387l-1.7,1.686c.214.605.873,2.088,1.464,3.34l.121.255-.92,2.2-.247.1c-1.33.517-2.871,1.155-3.447,1.445v2.37c.583.277,2.119.869,3.443,1.345l.257.094.921,2.2-.11.249c-.567,1.29-1.2,2.809-1.4,3.422l1.716,1.694c.551-.2,2.1-.866,3.4-1.466l.245-.113,2.208.905.1.248C931.551,49.624,932.2,51.148,932.492,51.714Zm1.157-8.158a5.069,5.069,0,1,1,5.118-5.071A5.1,5.1,0,0,1,933.649,43.556Zm0-8.879a3.81,3.81,0,1,0,3.871,3.808A3.847,3.847,0,0,0,933.649,34.677Z" transform="translate(-918.645 -23.649)" fill="#007c84" stroke="#007c84" stroke-width="0.7"/>
</svg>
